<?xml version="1.0" standalone="no"?>
<!DOCTYPE svg PUBLIC "-//W3C//DTD SVG 1.1//EN" "http://www.w3.org/Graphics/SVG/1.1/DTD/svg11.dtd" >
<svg xmlns="http://www.w3.org/2000/svg" xmlns:xlink="http://www.w3.org/1999/xlink" version="1.1">
<metadata></metadata>
<defs>
<font id="sofia_prolight_italic" horiz-adv-x="1253" >
<font-face units-per-em="2048" ascent="1536" descent="-512" />
<missing-glyph horiz-adv-x="544" />
<glyph unicode="&#xfb01;" horiz-adv-x="1222" d="M205 834l22 122h187l18 111q32 186 132 297t278 111h102l-24 -129h-103q-53 0 -94 -17.5t-66 -43t-43.5 -66t-27.5 -73.5t-17 -79l-18 -111h678l-168 -956h-135l145 834h-543l-145 -834h-137l145 834h-186zM1122 1313q7 42 42.5 70t78.5 28t69 -28t19 -70t-42.5 -70.5 t-78.5 -28.5t-69 28.5t-19 70.5z" />
<glyph unicode="&#xfb02;" horiz-adv-x="1196" d="M205 834l22 122h187l18 111q32 186 132 297t278 111h450l-262 -1475h-135l238 1346h-316q-53 0 -94 -17.5t-66 -43t-43.5 -66t-27.5 -73.5t-17 -79l-18 -111h235l-22 -122h-236l-145 -834h-137l145 834h-186z" />
<glyph unicode="&#xfb03;" horiz-adv-x="1935" d="M205 834l22 122h187l18 111q32 186 132 297t278 111h102l-24 -129h-103q-53 0 -94 -17.5t-66 -43t-43.5 -66t-27.5 -73.5t-17 -79l-18 -111h575l19 111q32 186 131.5 297t277.5 111h103l-25 -129h-102q-53 0 -94 -17.5t-66 -43t-43.5 -66t-27.5 -73.5t-17 -79l-18 -111 h678l-168 -956h-136l146 834h-543l-145 -834h-138l146 834h-576l-145 -834h-137l145 834h-186zM1835 1313q7 42 42.5 70t78.5 28t69 -28t19 -70t-42.5 -70.5t-78.5 -28.5t-69 28.5t-19 70.5z" />
<glyph unicode="&#xfb04;" horiz-adv-x="1908" d="M205 834l22 122h187l18 111q32 186 132 297t278 111h102l-24 -129h-103q-53 0 -94 -17.5t-66 -43t-43.5 -66t-27.5 -73.5t-17 -79l-18 -111h575l19 111q32 186 131.5 297t277.5 111h451l-262 -1475h-135l237 1346h-315q-53 0 -94 -17.5t-66 -43t-43.5 -66t-27.5 -73.5 t-17 -79l-18 -111h235l-22 -122h-236l-145 -834h-138l146 834h-576l-145 -834h-137l145 834h-186z" />
<glyph horiz-adv-x="0" />
<glyph horiz-adv-x="682" />
<glyph unicode=" "  horiz-adv-x="544" />
<glyph unicode="&#x09;" horiz-adv-x="544" />
<glyph unicode="&#xa0;" horiz-adv-x="544" />
<glyph unicode="!" horiz-adv-x="532" d="M166 86q7 46 46 76.5t87 30.5q47 0 73 -30t19 -77q-7 -46 -45 -76t-86 -30t-74.5 29.5t-19.5 76.5zM276 379l170 1032h136l-195 -1032h-111z" />
<glyph unicode="&#x22;" horiz-adv-x="667" d="M311 856l99 555h108l-98 -555h-109zM547 856l98 555h109l-99 -555h-108z" />
<glyph unicode="#" horiz-adv-x="1343" d="M137 358l58 127h225l196 439h-223l58 127h225l162 360h127l-162 -360h295l162 360h126l-161 -360h229l-59 -127h-230l-198 -439h229l-57 -127h-230l-159 -358h-127l159 358h-295l-159 -358h-125l159 358h-225zM545 485h295l198 439h-295z" />
<glyph unicode="$" horiz-adv-x="1134" d="M172 406h135q-21 -112 55 -201.5t216 -89.5q148 0 248.5 68.5t138.5 162.5q18 51 13.5 94t-21.5 75.5t-50 58t-72 42.5t-87 29l-183 43q-320 75 -266 354q28 158 167 264t306 119l37 195h102l-37 -197q162 -21 248.5 -128t57.5 -271h-136q20 121 -53.5 194.5t-206.5 73.5 q-122 0 -227 -71.5t-125 -178.5q-1 -24 -3 -48t9 -50t29.5 -49t58 -43t95.5 -33l182 -43q68 -15 123 -40t99.5 -63.5t67 -89t26 -116t-24.5 -145.5q-49 -126 -173.5 -224t-299.5 -114l-41 -234h-103l41 232q-123 8 -209.5 73t-120 158t-16.5 193z" />
<glyph unicode="%" horiz-adv-x="1339" d="M274 1104q20 115 114 194.5t208 79.5q115 0 180 -79t45 -195q-22 -116 -115 -194.5t-208 -78.5q-116 0 -181 78.5t-43 194.5zM283 0l917 1378h96l-917 -1378h-96zM391 1104q-11 -66 25 -111t102 -45t120.5 45t66.5 111q11 66 -27.5 112t-104.5 46t-118.5 -46t-63.5 -112z M758 252q20 116 112 195t209 79q116 0 181 -79.5t45 -194.5q-22 -116 -115.5 -194t-208.5 -78q-116 0 -179.5 77.5t-43.5 194.5zM874 252q-12 -66 24.5 -111t102.5 -45t120.5 45t66.5 111t-25.5 112t-103.5 46t-119.5 -46t-65.5 -112z" />
<glyph unicode="&#x26;" horiz-adv-x="1359" d="M190 430q23 123 105 226t205 163q-53 49 -75 117t-5 147q25 143 147.5 243.5t274.5 100.5q104 0 181 -48t110 -128l-129 -71q-19 52 -68 82t-117 30q-99 0 -174 -59.5t-90 -149.5q-17 -92 32.5 -152.5t145.5 -60.5h320l34 181h134l-35 -183h188l-22 -120h-187l-57 -318 q-11 -57 -14 -101t4 -87t26.5 -71t58 -45t95.5 -17l-25 -129q-117 0 -191.5 51.5t-86.5 138.5q-61 -85 -175 -137.5t-231 -52.5q-132 0 -226.5 60t-134 162.5t-18.5 227.5zM326 430q-25 -133 49.5 -224t218.5 -91q139 0 244 85.5t135 215.5l57 332h-323q-138 0 -247 -93.5 t-134 -224.5z" />
<glyph unicode="'" horiz-adv-x="432" d="M311 856l99 555h108l-98 -555h-109z" />
<glyph unicode="(" horiz-adv-x="739" d="M193 475q82 451 273.5 701.5t440.5 250.5l-24 -135q-188 0 -337.5 -215.5t-217.5 -601.5q-68 -382 4.5 -599.5t259.5 -217.5l-23 -135q-248 0 -352.5 254t-23.5 698z" />
<glyph unicode=")" horiz-adv-x="739" d="M2 -477l18 135q187 0 337 217t218 600q68 386 -4.5 601.5t-259.5 215.5l25 135q249 0 353 -252t22 -700q-81 -446 -272 -699t-437 -253z" />
<glyph unicode="*" horiz-adv-x="997" d="M309 1098l72 137l260 -107q28 248 35 299h149l-69 -299l301 107l16 -137l-301 -78q18 -34 148 -238q-27 -18 -74 -46.5t-58 -35.5l-118 248q-19 -22 -98 -113t-117 -137l-99 86l230 232z" />
<glyph unicode="+" horiz-adv-x="1069" d="M199 475l22 129h352l64 352h129l-64 -352h355l-23 -129h-354l-64 -354h-129l64 354h-352z" />
<glyph unicode="," horiz-adv-x="499" d="M4 -242q169 196 203 432h158q-43 -165 -119 -284t-156 -176z" />
<glyph unicode="-" horiz-adv-x="993" d="M217 414l25 129h698l-25 -129h-698z" />
<glyph unicode="." horiz-adv-x="520" d="M160 86q7 46 46 76.5t87 30.5q47 0 73 -30t19 -77q-7 -46 -45 -76t-86 -30t-74.5 29.5t-19.5 76.5z" />
<glyph unicode="/" horiz-adv-x="968" d="M66 0l938 1411h149l-938 -1411h-149z" />
<glyph unicode="0" horiz-adv-x="1249" d="M235.5 492q5.5 85 22.5 186q21 121 52 221t81.5 191t116 153t158 98.5t204.5 36.5q113 0 191.5 -36.5t120.5 -98t59 -153.5t12 -190.5t-26 -221.5q-21 -122 -51.5 -221.5t-80 -190.5t-114 -152.5t-156.5 -97.5t-204 -36q-95 0 -166 24.5t-115 71.5t-70 108t-33 142 t-1.5 166zM371 499.5q-5 -79.5 6.5 -153t41.5 -123t87 -79t139 -29.5t149 29.5t114 78.5t83.5 123t59.5 153.5t41 178.5q18 100 23 179.5t-5.5 154t-39.5 123.5t-85.5 78.5t-138.5 29.5t-149.5 -29.5t-115.5 -79t-85.5 -123t-61.5 -154t-41 -179.5t-22 -178.5z" />
<glyph unicode="1" horiz-adv-x="659" d="M281 1106l22 123l391 133l-241 -1362h-136l209 1186z" />
<glyph unicode="2" horiz-adv-x="1075" d="M125 0l6 47l692 690q135 131 156 252q20 113 -49 183.5t-189 70.5q-112 0 -203 -58.5t-122 -160.5l-121 33q53 148 182 234.5t289 86.5q177 0 277 -109.5t71 -279.5q-32 -181 -209 -348l-518 -506h578l-23 -135h-817z" />
<glyph unicode="3" horiz-adv-x="1095" d="M137 233l131 56q19 -70 84 -117.5t160 -54.5h-2q84 -5 166.5 27.5t142.5 94.5t78 138q25 115 -52.5 201t-203.5 86h-131l25 129h131q102 0 185 64t103 157q21 96 -28 159t-166 70q-86 4 -163.5 -29.5t-125.5 -93.5l-96 68q73 95 185 147t233 45q183 -12 261 -123.5 t36 -263.5q-23 -82 -88.5 -153.5t-151.5 -106.5q55 -14 97.5 -53.5t63.5 -91.5t27 -113t-10 -119q-46 -169 -206 -277.5t-345 -96.5q-130 10 -222 78t-118 173z" />
<glyph unicode="4" horiz-adv-x="1200" d="M111 291l938 1071h100l-168 -946h205l-23 -125h-205l-51 -291h-135l51 291h-712zM381 416h465l119 676z" />
<glyph unicode="5" horiz-adv-x="1148" d="M143 266l133 84q20 -98 105.5 -163.5t191.5 -65.5q160 0 266 86.5t132 220.5q23 134 -56.5 212.5t-199.5 78.5q-102 0 -180.5 -22t-212.5 -85l-41 72l241 678h668l-25 -137h-551l-161 -451q178 84 288 84q189 0 297.5 -115.5t73.5 -314.5q-37 -204 -190 -326t-373 -122 q-142 0 -254 79.5t-152 206.5z" />
<glyph unicode="6" horiz-adv-x="1138" d="M227 438q41 311 115 533q64 186 208.5 298.5t326.5 108.5q58 -2 103.5 -13.5t87.5 -36t73 -69.5t49 -110l-131 -51q-23 76 -77.5 108t-135.5 37q-95 4 -173 -41t-130.5 -126t-86 -177.5t-50.5 -208.5q51 85 153 129t201 39q117 -5 202.5 -68.5t120 -167t7.5 -221.5 q-40 -184 -190 -306t-331 -115q-178 8 -270 129t-72 329zM362 432q-25 -133 43 -221.5t195 -93.5q123 -4 225 79.5t131 211.5t-36 218.5t-191 94.5q-125 5 -234 -78.5t-133 -210.5z" />
<glyph unicode="7" horiz-adv-x="1060" d="M115 0l895 1227h-672l22 135h904l-990 -1362h-159z" />
<glyph unicode="8" horiz-adv-x="1157" d="M190 414q23 121 102 220.5t197 156.5q-103 92 -75 253q25 139 143.5 236.5t265.5 97.5q150 0 234 -97.5t59 -236.5q-13 -76 -58 -141.5t-110 -111.5q95 -59 140 -158.5t22 -218.5q-34 -182 -188.5 -308t-348.5 -126q-128 0 -224 57.5t-138.5 157.5t-20.5 219zM326 414 q-25 -125 53.5 -212t216.5 -87t246 86.5t133 212.5q25 124 -55.5 214.5t-217.5 90.5l-14 -2q-133 -12 -236.5 -98t-125.5 -205zM551 1044q-14 -84 32 -143t132 -59l18 2q93 6 165 62.5t85 137.5q14 85 -38.5 142t-145.5 57q-92 0 -163 -57t-85 -142z" />
<glyph unicode="9" horiz-adv-x="1142" d="M180 207l127 51q42 -133 230 -145q77 -3 142.5 26.5t113.5 81.5t85 125t60.5 152t36.5 168q-49 -86 -152 -129.5t-202 -38.5q-118 5 -203.5 68t-119.5 166.5t-7 221.5q40 184 190 306.5t330 115.5q179 -8 271.5 -128.5t72.5 -329.5q-40 -307 -119 -533 q-63 -185 -208 -300t-322 -108q-273 12 -326 230zM424 948q-28 -128 36 -218.5t187 -94.5q127 -5 235.5 78t135.5 211q24 132 -45.5 221t-192.5 94q-124 4 -225.5 -79.5t-130.5 -211.5z" />
<glyph unicode=":" horiz-adv-x="520" d="M160 86q7 46 46 76.5t87 30.5q47 0 73 -30t19 -77q-7 -46 -45 -76t-86 -30t-74.5 29.5t-19.5 76.5zM301 870q7 47 45 77t86 30t74.5 -30t19.5 -77q-7 -46 -45 -76t-86 -30t-74.5 29.5t-19.5 76.5z" />
<glyph unicode=";" horiz-adv-x="567" d="M43 -242q171 193 205 432h158q-43 -165 -119 -284t-156 -176zM338 870q7 47 45 77t86 30t74.5 -30t19.5 -77q-7 -46 -46 -76t-87 -30t-73.5 29.5t-18.5 76.5z" />
<glyph unicode="&#x3c;" horiz-adv-x="1288" d="M182 481l29 148l1112 399l-25 -147l-944 -326l828 -328l-27 -145z" />
<glyph unicode="=" horiz-adv-x="1255" d="M197 240l24 129h940l-24 -129h-940zM272 659l23 129h940l-23 -129h-940z" />
<glyph unicode="&#x3e;" horiz-adv-x="1288" d="M158 82l26 145l942 328l-827 326l27 147l970 -399l-26 -148z" />
<glyph unicode="?" horiz-adv-x="997" d="M274 86q7 46 46.5 76.5t87.5 30.5q47 0 73 -30t19 -77q-7 -46 -45 -76t-86 -30t-75 29.5t-20 76.5zM276 1030q33 177 167.5 286t301.5 109q81 0 151.5 -28t120 -78t70.5 -125.5t5 -163.5q-24 -143 -124 -243.5t-235 -139.5q-49 -15 -77 -26.5t-59 -32.5t-49 -52.5 t-26 -76.5l-14 -80h-135l14 80q12 70 41 123.5t74.5 90t95.5 60t117 43.5q87 26 156 94t85 160q20 114 -50.5 187t-182.5 73q-110 0 -200.5 -72.5t-110.5 -187.5h-136z" />
<glyph unicode="@" horiz-adv-x="2021" d="M184.5 275q-12.5 116 12.5 241q32 185 132 353.5t241 290.5t320 194.5t363 72.5q186 0 345.5 -66.5t266.5 -181t154 -278t15 -348.5q-14 -76 -39.5 -153t-68.5 -156t-96.5 -139t-128 -98t-157.5 -38q-59 0 -105 14.5t-82 46t-49.5 89t-0.5 137.5l49 270v2q20 119 -47 201 t-185 82t-215.5 -82.5t-117.5 -200.5t46.5 -200t184.5 -82q114 0 213 86l-25 -146q-105 -65 -211 -65q-167 0 -266.5 120t-66.5 287q29 168 171 288t310 120q161 0 260 -113q101 -116 78 -276l-55 -305q-28 -152 137 -152q61 0 114 32.5t88.5 80.5t64.5 113.5t45.5 121.5 t27.5 115q29 159 -12 299.5t-134 238.5t-231 155t-299 57q-214 0 -410 -106t-328.5 -287t-170.5 -394q-28 -160 6 -304t117.5 -248t215 -165t291.5 -61h37l-22 -125h-37q-124 0 -235 32t-198.5 90.5t-156 140.5t-106 182.5t-50 216.5z" />
<glyph unicode="A" horiz-adv-x="1306" d="M39 0l790 1411h144l295 -1411h-146l-80 371h-653l-205 -371h-145zM461 498h557l-150 725z" />
<glyph unicode="B" horiz-adv-x="1271" d="M205 0l248 1411h514q171 0 253 -94q60 -69 59 -176q0 -38 -7 -80q-19 -109 -74.5 -191.5t-150.5 -117.5q99 -20 152 -128q38 -78 38 -162q0 -33 -6 -67q-31 -167 -157 -281t-308 -114h-561zM365 135h421q116 0 201.5 76.5t106.5 183.5q4 24 4 49q0 42 -13 84 q-21 66 -77 111t-134 45h-413zM485 811h394q104 0 171.5 72t86.5 178q4 25 4 48q0 71 -42 113q-56 56 -169 56h-363z" />
<glyph unicode="C" horiz-adv-x="1359" d="M221 510q-2 26 -2 53q0 68 14 139q36 198 151.5 363.5t290 263.5t369.5 98q147 0 266.5 -55t198.5 -155l-110 -95q-144 170 -377 170q-159 0 -299.5 -79t-233.5 -213.5t-120 -297.5q-11 -63 -11 -123q0 -92 27 -173q45 -134 157 -212.5t271 -78.5q238 0 438 172l78 -97 q-114 -100 -254 -155t-287 -55q-98 0 -184.5 25.5t-152.5 72.5t-117 112.5t-78 146.5t-35 173z" />
<glyph unicode="D" horiz-adv-x="1478" d="M205 0l248 1411h530q117 0 211.5 -35t157 -99t100.5 -153q38 -88 44 -194q1 -24 2 -49q0 -85 -15 -179q-27 -151 -91.5 -279t-159 -222.5t-223 -147.5t-274.5 -53h-530zM362 135h396q121 0 222.5 42.5t174.5 119t122 179t71 226.5q13 84 13 160q-1 12 -1 24 q-2 86 -30 158t-75 123.5t-122.5 80t-171.5 28.5h-396z" />
<glyph unicode="E" horiz-adv-x="1144" d="M205 0l248 1411h804l-22 -135h-670l-92 -516h586l-25 -135h-585l-87 -490h693l-23 -135h-827z" />
<glyph unicode="F" horiz-adv-x="1064" d="M205 0l248 1411h792l-22 -135h-658l-92 -516h522l-24 -135h-522l-109 -625h-135z" />
<glyph unicode="G" horiz-adv-x="1548" d="M233 702q36 197 158 363.5t302 264t376 97.5q258 0 424 -163l-113 -97q-131 125 -333 125q-159 0 -305.5 -78.5t-246 -214t-126.5 -297.5q-11 -58 -11 -113q0 -97 33 -183q51 -134 169.5 -212.5t277.5 -78.5q227 0 379.5 119t203.5 331h-411l22 127h563 q-60 -351 -266.5 -531.5t-515.5 -180.5q-197 0 -343 96.5t-210 261.5q-40 106 -40 225q0 67 13 139z" />
<glyph unicode="H" horiz-adv-x="1454" d="M205 0l248 1411h135l-115 -647h774l115 647h135l-248 -1411h-135l113 637h-774l-113 -637h-135z" />
<glyph unicode="I" horiz-adv-x="544" d="M205 0l248 1411h135l-248 -1411h-135z" />
<glyph unicode="J" horiz-adv-x="544" d="M-297 -512l37 133q14 -4 55.5 -9t57.5 -5q75 0 134.5 24t99 68.5t64 98.5t37.5 122l263 1491h135l-264 -1491q-17 -95 -53.5 -173.5t-95.5 -141.5t-147 -98t-198 -35q-55 0 -125 16z" />
<glyph unicode="K" horiz-adv-x="1142" d="M205 0l248 1411h135l-121 -686l653 686h160l-674 -706l545 -705h-182l-514 664l-115 -664h-135z" />
<glyph unicode="L" horiz-adv-x="997" d="M205 0l248 1411h135l-226 -1276h599l-23 -135h-733z" />
<glyph unicode="M" horiz-adv-x="1935" d="M125 0l420 1411h135l342 -1100l729 1100h135l-76 -1411h-133l64 1169l-680 -1015h-135l-318 1015l-350 -1169h-133z" />
<glyph unicode="N" horiz-adv-x="1402" d="M205 0l248 1411h145l504 -1173l209 1173h135l-248 -1411h-139l-512 1182l-207 -1182h-135z" />
<glyph unicode="O" horiz-adv-x="1640" d="M233 702q36 197 158 363.5t302 264t376 97.5q148 0 270 -57.5t199.5 -155t109.5 -231.5q17 -73 17 -149q0 -65 -12 -132q-36 -198 -158.5 -363.5t-303.5 -262t-378 -96.5t-343 96t-210 262q-41 106 -40 225q0 67 13 139zM369 702q-11 -59 -11 -114q0 -96 32 -182 q50 -134 169 -212.5t279 -78.5q161 0 307 78.5t245 213t128 295.5q9 56 9 110q-1 99 -33 187q-50 135 -168 214t-279 79q-159 0 -305.5 -78.5t-246 -214t-126.5 -297.5z" />
<glyph unicode="P" horiz-adv-x="1230" d="M205 0l248 1411h555q70 0 126 -17t93.5 -46.5t63.5 -70.5t36 -89t12 -101v-15q0 -46 -10 -93q-15 -85 -51 -159.5t-92.5 -136t-141.5 -97t-188 -35.5h-418l-96 -551h-137zM463 686h407q72 0 130 24t96.5 66.5t62.5 93t35 109.5q8 36 8 72q0 19 -2 37q-7 54 -29 95.5 t-70 67t-116 25.5h-418z" />
<glyph unicode="Q" horiz-adv-x="1640" d="M233 702q36 197 158 363.5t302 264t376 97.5t343 -97.5t212 -263.5q41 -108 41 -229q0 -66 -12 -135q-36 -197 -159.5 -362t-299.5 -262l111 -238l-129 -73l-117 253q-119 -40 -246 -40q-197 0 -343 96.5t-210 261.5q-40 106 -40 225q0 67 13 139zM369 702 q-11 -58 -11 -113q0 -97 33 -183q51 -134 169.5 -212.5t277.5 -78.5q93 0 166 20l-115 258l129 74l121 -277q148 79 249 213.5t130 298.5q9 56 9 110q0 99 -33 187q-50 135 -168 214t-279 79q-159 0 -305.5 -78.5t-246 -214t-126.5 -297.5z" />
<glyph unicode="R" horiz-adv-x="1245" d="M205 0l248 1411h524q83 0 146.5 -24t99.5 -65t57.5 -96t21.5 -117.5t-10 -129.5q-15 -83 -48 -155.5t-86 -134.5t-134 -99t-182 -39l293 -551h-166l-293 551h-238l-96 -551h-137zM463 686h377q138 0 215 83t102 210q9 37 9 74q0 17 -2 35q-7 54 -27.5 95.5t-67.5 67 t-115 25.5h-387z" />
<glyph unicode="S" horiz-adv-x="1163" d="M186 406h136q-5 -24 -5 -48q0 -84 59 -154q75 -90 216 -89q148 0 248.5 68.5t138.5 162.5q14 41 14 76q-1 9 -1 18q-4 43 -21 75.5t-50 58t-72 42.5t-87 29l-180 43q-68 16 -119.5 40.5t-81 54.5t-47.5 61.5t-23 67.5q-5 33 -5 61v5q0 30 7 64q19 110 99 200t189.5 137.5 t221.5 47.5q191 -1 297 -111q81 -85 81 -211q0 -38 -7 -81h-135q4 26 4 50q1 86 -57 144q-74 74 -207 74q-122 0 -227.5 -71.5t-125.5 -178.5q-1 -24 -3 -48t9 -50t29.5 -49t58 -43t95.5 -33l182 -43q68 -15 123 -40t99.5 -63.5t66.5 -88.5t26 -116v-15q0 -60 -24 -131 q-26 -64 -72.5 -123t-112.5 -109t-158.5 -80t-197.5 -30q-101 0 -182 37.5t-127 98.5t-66 137q-11 44 -12 89q0 32 6 64z" />
<glyph unicode="T" horiz-adv-x="1159" d="M285 1276l22 135h1041l-23 -135h-453l-225 -1276h-135l225 1276h-452z" />
<glyph unicode="U" horiz-adv-x="1380" d="M272 477l166 934h135l-165 -934q-6 -37 -6 -71q0 -40 9 -78q17 -68 59 -114.5t104.5 -72.5t136.5 -26q152 0 274.5 100t151.5 262l166 934h135l-164 -934q-26 -147 -114 -262t-212.5 -175t-261.5 -60q-210 0 -330 138q-92 106 -92 261q0 47 8 98z" />
<glyph unicode="V" horiz-adv-x="1128" d="M317 1411h140l143 -1190l565 1190h140l-670 -1411h-141z" />
<glyph unicode="W" horiz-adv-x="1859" d="M295 1411h143l185 -1198l473 1012h102l113 -1012l606 1198h143l-725 -1411h-129l-110 946l-443 -946h-129z" />
<glyph unicode="X" horiz-adv-x="1210" d="M29 0l626 760l-323 651h166l260 -534l450 534h164l-553 -651l363 -760h-166l-299 645l-524 -645h-164z" />
<glyph unicode="Y" horiz-adv-x="1259" d="M276 1411h162l332 -608l549 608h164l-670 -756l-115 -655h-139l115 655z" />
<glyph unicode="Z" horiz-adv-x="1146" d="M86 0l23 135l999 1139h-768l22 137h934l-22 -135l-1002 -1139h799l-22 -137h-963z" />
<glyph unicode="[" horiz-adv-x="612" d="M96 -463l334 1874h336l-23 -137h-198l-285 -1598h199l-27 -139h-336z" />
<glyph unicode="\" horiz-adv-x="968" d="M311 1411h150l442 -1411h-149z" />
<glyph unicode="]" horiz-adv-x="612" d="M10 -463l25 139h198l285 1598h-199l23 137h336l-334 -1874h-334z" />
<glyph unicode="_" horiz-adv-x="1456" d="M102 -250l23 129h1161l-22 -129h-1162z" />
<glyph unicode="`" horiz-adv-x="937" d="M512 1411h168l94 -274h-139z" />
<glyph unicode="a" d="M182 481q27 148 113 262t207.5 174t257.5 60q110 0 202.5 -46t127.5 -132l26 157h137l-166 -956h-137l27 164q-66 -87 -175 -135.5t-218 -48.5q-208 0 -324 139q-87 104 -88 255q0 51 10 107zM319 481q-7 -40 -8 -77q-1 -107 63 -184q84 -103 236 -103q154 0 271.5 96 t150.5 268q7 39 7 75q0 43 -10 81q-19 70 -64 113.5t-104.5 66.5t-125.5 23q-152 0 -269.5 -99t-146.5 -260z" />
<glyph unicode="b" d="M166 0l260 1475h137l-121 -676q66 86 174.5 132t219.5 46q209 -1 324 -137q85 -101 86 -250q0 -52 -11 -109q-39 -223 -204.5 -362t-373.5 -139q-110 0 -200 47.5t-125 136.5l-29 -164h-137zM385 481q-8 -42 -8 -80q0 -41 9 -77q17 -70 60 -114.5t104 -68.5t134 -24 q149 0 267 102.5t147 261.5q8 42 8 80q0 107 -61 181q-82 98 -234 98q-66 0 -133 -23t-127 -66.5t-105 -113.5t-61 -156z" />
<glyph unicode="c" horiz-adv-x="1032" d="M182 481q27 148 115 262t212 174t261 60q99 0 182.5 -33.5t137.5 -95.5l-111 -96q-87 90 -234 90q-152 0 -276 -100t-152 -261q-8 -41 -7 -79q0 -108 66 -184q90 -102 242 -103q144 0 265 92l82 -96q-170 -131 -371 -131q-101 0 -185.5 36t-141.5 100q-57 66 -81 160 q-13 52 -12 109q0 46 8 96z" />
<glyph unicode="d" d="M182 481q27 148 113 262t207.5 174t257.5 60q110 0 202.5 -46t127.5 -132l120 676h138l-261 -1475h-137l27 164q-66 -87 -175 -135.5t-218 -48.5q-208 0 -324 139q-87 104 -88 255q0 51 10 107zM319 481q-7 -40 -8 -77q-1 -107 63 -184q84 -103 236 -103q154 0 271.5 96 t150.5 268q7 39 7 75q0 43 -10 81q-19 70 -64 113.5t-104.5 66.5t-125.5 23q-152 0 -269.5 -99t-146.5 -260z" />
<glyph unicode="e" horiz-adv-x="1140" d="M182 481q41 223 202.5 359.5t369.5 136.5q135 0 230 -60q96 -59 137 -173q25 -68 24 -150q0 -54 -10 -113q-3 -10 -6.5 -31.5t-6.5 -31.5h-811v-13q-1 -131 75 -209q80 -82 216 -81q97 0 182 43.5t146 122.5l129 -31q-77 -128 -205 -199t-276 -71q-208 0 -322 138 q-84 103 -84 254q0 52 10 109zM334 545h674v17q0 125 -70 200q-76 80 -209 80q-134 0 -244 -81t-151 -216z" />
<glyph unicode="f" horiz-adv-x="673" d="M205 834l22 122h187l18 111q32 186 132 297t278 111h102l-24 -129h-103q-53 0 -94 -17.5t-66 -43t-43.5 -66t-27.5 -73.5t-17 -79l-18 -111h235l-22 -122h-236l-145 -834h-137l145 834h-186z" />
<glyph unicode="g" horiz-adv-x="1251" d="M121 -240l127 68q36 -85 105 -127.5t159 -42.5q87 0 158 26t133 84.5t107 160.5t71 245q-62 -89 -175 -141.5t-222 -52.5q-209 0 -325 136q-87 103 -87 253q0 50 10 106q41 223 206.5 362.5t373.5 139.5q110 0 200.5 -47.5t127.5 -136.5l28 163h137l-143 -804 q-110 -629 -623 -629q-124 0 -222 59.5t-146 177.5zM319 475q-7 -41 -7 -79q0 -107 62 -180q84 -99 236 -99q89 0 175.5 38.5t156 122.5t90.5 197q7 43 7 81q0 115 -63 188q-85 96 -239 96q-150 0 -269.5 -103t-148.5 -262z" />
<glyph unicode="h" horiz-adv-x="1142" d="M166 0l260 1475h137l-121 -676q57 87 157 132.5t194 45.5q177 0 253 -111q52 -75 51 -189q0 -55 -12 -120l-96 -557h-137l96 557q9 46 9 85q1 74 -31 124q-48 76 -158 76q-60 0 -117.5 -18t-110.5 -54t-92 -100t-53 -148l-92 -522h-137z" />
<glyph unicode="i" horiz-adv-x="466" d="M166 0l168 956h135l-168 -956h-135zM362 1313q7 42 42.5 70t78.5 28t69 -28q20 -22 21 -53q0 -8 -2 -17q-7 -42 -42 -70.5t-78 -28.5t-69 28q-21 23 -21 54q0 8 1 17z" />
<glyph unicode="j" horiz-adv-x="468" d="M-215 -463l25 129h102q52 0 92.5 17.5t64.5 43t43 66t27.5 73.5t16.5 79l178 1011h137l-180 -1011q-77 -408 -404 -408h-102zM362 1313q7 42 42.5 70t78.5 28t69 -28q20 -22 20 -53q0 -8 -1 -17q-7 -42 -42 -70.5t-78 -28.5t-69 28q-21 23 -21 54q0 8 1 17z" />
<glyph unicode="k" horiz-adv-x="993" d="M166 0l260 1475h135l-160 -897l447 378h192l-483 -409l424 -547h-186l-402 522l-92 -522h-135z" />
<glyph unicode="l" horiz-adv-x="466" d="M166 0l260 1475h135l-260 -1475h-135z" />
<glyph unicode="m" horiz-adv-x="1828" d="M166 0l168 956h137l-29 -157q56 85 163 131.5t188 46.5q243 0 292 -209q43 64 97.5 108t109.5 64.5t99.5 28.5t87.5 8q176 1 253 -111q52 -75 52 -190q0 -55 -12 -119l-97 -557h-137l96 557q8 44 8 82q0 77 -32 127q-46 76 -156 76q-60 0 -117.5 -18t-110.5 -54t-92 -100 t-53 -148l-92 -522h-137l96 557q8 44 8 82q0 77 -32 127q-46 76 -156 76q-60 0 -117.5 -18t-110.5 -54t-92 -100t-53 -148l-92 -522h-137z" />
<glyph unicode="n" horiz-adv-x="1142" d="M166 0l168 956h137l-29 -157q57 87 157 132.5t194 45.5q177 0 253 -111q52 -75 51 -189q0 -55 -12 -120l-96 -557h-137l96 557q8 44 8 82q0 77 -32 127q-46 76 -156 76q-60 0 -117.5 -18t-110.5 -54t-92 -100t-53 -148l-92 -522h-137z" />
<glyph unicode="o" horiz-adv-x="1200" d="M182 481q27 148 115 262t212 174t261 60q101 0 186 -35.5t142 -98.5q56 -63 80 -157q13 -51 14 -107q0 -47 -10 -98q-39 -222 -208 -361.5t-380 -139.5q-101 0 -185.5 36t-141.5 100q-57 66 -81 160q-13 52 -12 109q0 46 8 96zM317 481q-8 -41 -7 -79q0 -108 66 -184 q90 -102 242.5 -102.5t274.5 101t154 264.5q7 38 7 73q0 64 -23 118q-35 83 -110 126.5t-176 43.5q-152 0 -276 -100t-152 -261z" />
<glyph unicode="p" d="M80 -463l254 1419h137l-29 -165q67 88 176 137t218 49q101 0 184.5 -36.5t138 -101.5t75.5 -160q11 -49 11 -102q0 -50 -10 -104q-27 -148 -113 -261.5t-207.5 -172.5t-257.5 -59q-111 0 -201.5 45t-125.5 131l-113 -619h-137zM385 473q-7 -37 -7 -71q0 -44 12 -84 q19 -69 64 -112t104.5 -66t125.5 -23q152 0 268.5 97t145.5 259q8 41 8 79q0 107 -62 184q-83 104 -233 104q-152 0 -275 -98.5t-151 -268.5z" />
<glyph unicode="q" d="M182 473q41 223 206.5 363.5t373.5 140.5q109 0 201 -49t129 -137l26 165h137l-254 -1419h-137l113 619q-68 -88 -173.5 -132t-217.5 -44q-101 0 -184.5 35t-139.5 97.5t-78 155.5q-12 49 -12 103q0 49 10 102zM322 473q-8 -42 -8 -80q0 -107 61 -179q82 -97 235 -97 q90 0 176 38.5t156 122t90 195.5q7 43 7 81q0 114 -63 188q-85 98 -239 98q-150 0 -268 -104t-147 -263z" />
<glyph unicode="r" horiz-adv-x="772" d="M166 0l168 956h137l-39 -217q110 238 318 238q47 0 91.5 -12t55.5 -25l-39 -133q-59 33 -133 33q-94 0 -171 -69.5t-122.5 -175.5t-69.5 -239l-59 -356h-137z" />
<glyph unicode="s" horiz-adv-x="868" d="M135 274h121q13 -165 199 -165q92 0 153.5 41.5t73.5 109.5q3 15 3 29q0 35 -18 63q-26 40 -94 56l-129 30q-32 8 -57.5 17.5t-55 25.5t-48.5 39.5t-32 55.5q-12 29 -12 69v7q1 44 17 98q36 102 134.5 164.5t217.5 62.5q118 0 190 -62q68 -59 68 -173v-13h-133 q-1 54 -42.5 85.5t-104.5 31.5q-69 0 -125.5 -33t-73.5 -84q-11 -27 -10 -50q0 -79 125 -110l123 -30q198 -50 197 -219q0 -29 -5 -60q-21 -123 -135 -201.5t-264 -78.5q-129 0 -214 80q-72 67 -72 173q0 20 3 41z" />
<glyph unicode="t" horiz-adv-x="630" d="M203 834l22 122h172l64 359h137l-63 -359h202l-22 -122h-203l-145 -834h-138l146 834h-172z" />
<glyph unicode="u" horiz-adv-x="1142" d="M223 399l99 557h137l-99 -557q-8 -44 -8 -82q0 -77 32 -127q47 -75 157 -75q60 0 117 17.5t110 54t92.5 100t54.5 147.5l93 522h137l-168 -956h-137l26 158q-57 -87 -157.5 -132.5t-192.5 -45.5q-176 0 -253 111q-52 75 -52 189q0 55 12 119z" />
<glyph unicode="v" horiz-adv-x="1034" d="M217 956h143l185 -796l465 796h145l-565 -956h2h-148z" />
<glyph unicode="w" horiz-adv-x="1646" d="M219 956h146l145 -739l405 739h148l145 -739l406 739h145l-526 -956h-115l-162 768l-421 -768h-115z" />
<glyph unicode="x" horiz-adv-x="989" d="M31 0l473 526l-236 430h168l170 -315l283 315h168l-387 -430l288 -526h-165l-230 412l-368 -412h-164z" />
<glyph unicode="y" horiz-adv-x="1034" d="M166 -463l274 465l-223 954h143l187 -778l463 778h145l-848 -1419h-141z" />
<glyph unicode="z" horiz-adv-x="1013" d="M84 0l18 125l762 696h-600l23 135h794l-22 -122l-768 -699h645l-23 -135h-829z" />
<glyph unicode="{" horiz-adv-x="808" d="M156 422l20 117q54 0 102 43.5t56 97.5l63 352q19 117 90 208.5t170 139t207 47.5h111l-23 -124h-110q-108 0 -199 -77t-111 -194l-63 -352q-11 -63 -55 -121t-103 -80q49 -20 73 -78t13 -120l-63 -349q-20 -118 43 -194t172 -76h110l-20 -125h-111q-81 0 -149 28 t-114 78.5t-64 125.5t-2 163l63 349q8 56 -22.5 98.5t-83.5 42.5z" />
<glyph unicode="|" horiz-adv-x="466" d="M137 -250l332 1870h102l-331 -1870h-103z" />
<glyph unicode="}" horiz-adv-x="808" d="M2 -463l18 125h111q110 0 201 76t112 194l64 349q11 62 55 120t99 78q-52 22 -73.5 79.5t-10.5 121.5l63 352q21 118 -43 194.5t-174 76.5h-111l23 124h110q168 0 265.5 -109.5t64.5 -285.5l-63 -352q-8 -56 21 -98.5t83 -42.5l-20 -117q-52 0 -100 -43.5t-56 -97.5 l-61 -349q-33 -177 -167.5 -286t-303.5 -109h-107z" />
<glyph unicode="&#xa1;" horiz-adv-x="479" d="M86 -463l195 1020h110l-170 -1020h-135zM276 850q7 46 45.5 76t86.5 30t74.5 -29.5t19.5 -76.5t-45 -77t-86 -30t-75 30t-20 77z" />
<glyph unicode="&#xa2;" horiz-adv-x="1071" d="M188 481q36 197 179 330.5t327 159.5l39 223h103l-39 -217q193 -9 301 -129l-113 -96q-87 90 -231 90q-98 0 -188.5 -43.5t-156.5 -127t-85 -190.5q-31 -161 58.5 -263.5t242.5 -102.5q145 0 264 92l82 -96q-152 -122 -350 -131l-39 -230h-103l41 236q-176 25 -272 161 t-60 334z" />
<glyph unicode="&#xa3;" horiz-adv-x="1308" d="M100 0l23 135h201l77 436h-165l20 117h166l63 354q33 176 174.5 286t311.5 110q81 0 149 -28t114 -78.5t64 -126t2 -163.5h-135q20 115 -45 188t-174 73q-112 0 -208.5 -73.5t-116.5 -187.5l-64 -354h332l-21 -117h-331l-78 -436h583q19 0 33.5 14t18.5 37l20 121h135 l-20 -121q-13 -79 -74 -132.5t-135 -53.5h-920z" />
<glyph unicode="&#xa4;" horiz-adv-x="1245" d="M213 322l172 149q-59 101 -35 238q23 134 123 237l-125 152l94 78l123 -152q115 80 250 80q133 0 225 -80l177 152l61 -78l-174 -152q61 -103 37 -237q-24 -136 -123 -238l125 -149l-92 -78l-125 149q-113 -80 -250 -80q-132 0 -227 80l-173 -149zM475 709 q-20 -111 45.5 -191t177.5 -80t205 80t113 191t-45.5 190.5t-177.5 79.5t-205 -79.5t-113 -190.5z" />
<glyph unicode="&#xa5;" horiz-adv-x="1341" d="M311 258l17 96h329l37 203h-329l18 96h330l-398 758h162l332 -608l549 608h164l-670 -758h332l-19 -96h-331l-37 -203h331l-16 -96h-332l-43 -258h-139l43 258h-330z" />
<glyph unicode="&#xa6;" horiz-adv-x="475" d="M141 -250l133 770h103l-133 -770h-103zM334 848l139 772h102l-139 -772h-102z" />
<glyph unicode="&#xa7;" horiz-adv-x="1058" d="M164 96l137 37q19 -72 77 -112.5t140 -40.5q109 0 199 72.5t110 187.5l50 272q21 116 -44 187t-176 71q-120 0 -190 -55l25 151q91 39 190 39q168 0 264.5 -109t65.5 -284l-49 -272q-33 -177 -167.5 -286.5t-301.5 -109.5q-130 0 -220 67.5t-110 184.5zM268 760l49 272 q33 177 167.5 286t301.5 109q130 0 218.5 -66.5t111.5 -184.5l-137 -37q-19 72 -77 112.5t-140 40.5q-109 0 -199 -72.5t-110 -187.5l-50 -272q-21 -116 44 -187t176 -71q117 0 190 55l-27 -151q-91 -39 -188 -39q-168 0 -264.5 109t-65.5 284z" />
<glyph unicode="&#xa8;" horiz-adv-x="1062" d="M477 1313q7 42 42.5 70t78.5 28t69 -28t19 -70t-43.5 -70.5t-79.5 -28.5t-68 28.5t-18 70.5zM840 1313q7 42 42.5 70t78.5 28t69 -28t19 -70t-43.5 -70.5t-79.5 -28.5t-68 28.5t-18 70.5z" />
<glyph unicode="&#xa9;" horiz-adv-x="1669" d="M242 702q36 197 159.5 363.5t304.5 264t377 97.5t344.5 -97.5t214.5 -264.5t31 -363q-27 -148 -107 -281.5t-193 -230t-256 -153.5t-290 -57q-148 0 -270.5 57t-200 153.5t-109.5 230t-5 281.5zM356 702q-29 -166 25.5 -305t178 -220t288.5 -81t318 81t257 220t133 305 q22 124 -5 236.5t-93 194t-169 130t-226 48.5q-166 0 -318 -82t-255.5 -221.5t-133.5 -305.5zM598 692q29 155 152 261t276 106t250 -123l-92 -76q-69 88 -176 88q-104 0 -193 -76t-106 -180q-20 -104 41.5 -180t167.5 -76q100 0 210 92l62 -79q-138 -123 -293 -123 q-154 0 -241 107t-58 259z" />
<glyph unicode="&#xaa;" horiz-adv-x="974" d="M270 516l15 84h624l-14 -84h-625zM336 1044q29 149 136 237.5t245 88.5q157 0 207 -98l14 84h100l-112 -625h-101l19 90q-46 -48 -113.5 -76t-132.5 -28q-137 0 -214 91t-48 236zM438 1044q-17 -97 35 -161t145 -64q95 0 170.5 59.5t94.5 165.5q16 106 -40 166t-145 60 q-94 0 -168 -62t-92 -164z" />
<glyph unicode="&#xab;" horiz-adv-x="927" d="M184 477l359 424h127l-359 -424l209 -424h-127zM492 477l358 424h127l-359 -424l209 -424h-127z" />
<glyph unicode="&#xac;" horiz-adv-x="1318" d="M260 592l23 129h1003l-82 -463h-129l60 334h-875z" />
<glyph unicode="&#xad;" horiz-adv-x="993" d="M217 414l25 129h698l-25 -129h-698z" />
<glyph unicode="&#xae;" horiz-adv-x="1669" d="M242 702q36 197 159.5 363.5t304.5 264t377 97.5t344.5 -97.5t214.5 -264.5t31 -363q-27 -148 -107 -281.5t-193 -230t-256 -153.5t-290 -57q-148 0 -270.5 57t-200 153.5t-109.5 230t-5 281.5zM356 702q-29 -166 25.5 -305t178 -220t288.5 -81t318 81t257 220t133 305 q22 124 -5 236.5t-93 194t-169 130t-226 48.5q-166 0 -318 -82t-255.5 -221.5t-133.5 -305.5zM666 336l129 717h272q109 0 155 -68t27 -162q-14 -80 -71.5 -143.5t-145.5 -79.5l144 -264h-136l-141 260h-76l-45 -260h-112zM844 707h155q55 0 93.5 34.5t46.5 81.5t-17.5 82 t-77.5 35h-159z" />
<glyph unicode="&#xaf;" horiz-adv-x="978" d="M463 1241l24 129h488l-25 -129h-487z" />
<glyph unicode="&#xb0;" horiz-adv-x="749" d="M326 1171q17 104 107 180t194 76q106 0 167 -75.5t44 -180.5q-20 -105 -107.5 -180.5t-193.5 -75.5t-168.5 76t-42.5 180zM430 1171q-12 -63 24 -107t99 -44t115.5 44t64.5 107t-25 107.5t-100 44.5t-114.5 -44.5t-63.5 -107.5z" />
<glyph unicode="&#xb1;" horiz-adv-x="1118" d="M150 0l20 129h819l-20 -129h-819zM248 561l22 129h344l58 324h129l-58 -324h347l-23 -129h-346l-59 -325h-130l60 325h-344z" />
<glyph unicode="&#xb2;" horiz-adv-x="657" d="M246 963l12 49l393 393q72 72 82 133q10 59 -24 94t-95 35q-57 0 -106.5 -34.5t-69.5 -92.5l-94 25q32 96 112.5 153.5t176.5 57.5q106 0 166.5 -67t42.5 -171q-19 -110 -123 -207q-125 -119 -266 -260h307l-21 -108h-493z" />
<glyph unicode="&#xb3;" horiz-adv-x="665" d="M250 1118q14 7 47.5 24.5t52.5 26.5q10 -44 46 -73t87 -35q68 -5 128 34.5t73 98.5q13 60 -26 102.5t-105 42.5h-90l16 105h90q45 0 82 26.5t49 67.5q17 53 -7 88t-79 41q-88 8 -155 -72l-68 64q45 58 112.5 90.5t139.5 28.5q96 -7 147.5 -71.5t34.5 -152.5 q-11 -48 -43.5 -90.5t-79.5 -68.5q56 -23 82 -85.5t9 -129.5q-29 -104 -128 -170t-210 -58q-76 6 -131 51.5t-74 114.5z" />
<glyph unicode="&#xb4;" horiz-adv-x="937" d="M463 1137l192 274h168l-221 -274h-139z" />
<glyph unicode="&#xb5;" horiz-adv-x="1140" d="M117 -334l229 1290h137l-98 -557q-23 -134 23.5 -209t156.5 -75q60 0 117.5 17.5t110.5 54t92.5 100t54.5 147.5l92 522h137l-168 -956h-137l27 158q-57 -87 -157.5 -132.5t-192.5 -45.5q-159 0 -215 86l-72 -400h-137z" />
<glyph unicode="&#xb6;" d="M244 969q21 120 97.5 221.5t188.5 161t234 59.5h135l-270 -1532h-135l114 647q-184 0 -290 129t-74 314zM451 -360l22 120h113q51 0 99 36t58 83l271 1532h135q111 0 179 -80.5t46 -191.5l-28 -162h-136l29 162q10 57 -23 97t-90 40l-243 -1364l-11 -43 q-32 -98 -120 -163.5t-189 -65.5h-112z" />
<glyph unicode="&#xb7;" horiz-adv-x="520" d="M240 539q7 46 46 76t87 30t73.5 -29.5t18.5 -76.5t-45 -77t-86 -30t-74.5 30t-19.5 77z" />
<glyph unicode="&#xb8;" horiz-adv-x="1056" d="M289 -207l106 -8q-2 -18 2 -39q11 -36 43 -51t70 -2q39 18 60.5 54t11.5 71l-60 235h115l47 -192q20 -82 -24 -157t-130 -107q-86 -31 -151.5 -1t-85.5 109q-12 47 -4 88z" />
<glyph unicode="&#xb9;" horiz-adv-x="413" d="M338 1581l16 105l256 88l-145 -811h-109l121 665z" />
<glyph unicode="&#xba;" horiz-adv-x="972" d="M266 516l15 84h624l-14 -84h-625zM340 1049q24 147 136.5 236t250.5 89t215 -88.5t53 -236.5q-24 -144 -137.5 -236t-249.5 -92q-139 0 -215.5 91t-52.5 237zM440 1049q-20 -100 37.5 -164t151.5 -64q95 0 171.5 63.5t96.5 164.5q18 103 -36.5 165t-149.5 62 t-174.5 -62.5t-96.5 -164.5z" />
<glyph unicode="&#xbb;" horiz-adv-x="927" d="M117 53l356 424l-205 424h127l205 -424l-356 -424h-127zM424 53l356 424l-205 424h127l205 -424l-356 -424h-127z" />
<glyph unicode="&#xbc;" horiz-adv-x="1568" d="M162 -20l1167 1398h135l-1167 -1398h-135zM307 1178l21 104l254 88l-144 -811h-108l116 666zM868 166l559 637h82l-96 -535h117l-19 -102h-116l-27 -166h-108l26 166h-418zM1073 268h232l59 338z" />
<glyph unicode="&#xbd;" horiz-adv-x="1572" d="M139 -20l1168 1398h135l-1168 -1398h-135zM313 1178l21 104l254 88l-144 -811h-108l117 666zM969 0l6 49l395 393q74 74 84 133t-24.5 94.5t-96.5 35.5q-57 0 -106.5 -34.5t-67.5 -92.5l-96 24q35 97 115.5 154t175.5 57q106 0 166.5 -67t42.5 -171q-19 -106 -125 -206 q-83 -79 -264 -260h307l-19 -109h-493z" />
<glyph unicode="&#xbe;" horiz-adv-x="1658" d="M215 715q14 7 47.5 24.5t52.5 26.5q10 -44 48 -73.5t88 -35.5q66 -5 127 35t73 99q13 60 -26 102.5t-105 42.5h-90l16 104h91q44 0 80.5 27t48.5 68q17 53 -6 88t-78 41q-88 8 -158 -72l-66 63q43 58 111.5 90.5t140.5 28.5q99 -7 149.5 -70.5t33.5 -152.5 q-11 -48 -44 -91t-81 -69q56 -23 81.5 -85.5t8.5 -129.5q-29 -103 -126.5 -168.5t-209.5 -58.5q-77 6 -132.5 51.5t-74.5 114.5zM311 -20l1168 1398h135l-1168 -1398h-135zM956 166l557 637h82l-96 -535h117l-17 -102h-116l-29 -166h-108l28 166h-418zM1159 268h232l59 338z " />
<glyph unicode="&#xbf;" horiz-adv-x="970" d="M59 -74q24 142 126 243t237 140q89 25 142 73t69 136l10 60h135l-10 -60q-43 -252 -330 -338q-88 -27 -157.5 -94.5t-85.5 -159.5q-20 -114 50.5 -187t182.5 -73q110 0 198.5 72t112.5 188h135q-33 -177 -167.5 -286t-303.5 -109q-81 0 -151.5 28t-119 78t-69 125.5 t-4.5 163.5zM651 870q7 47 45 77t86 30t75 -30t20 -77q-7 -46 -45.5 -76t-86.5 -30t-74.5 29.5t-19.5 76.5z" />
<glyph unicode="&#xc0;" horiz-adv-x="1306" d="M39 0l790 1411h144l295 -1411h-146l-80 371h-653l-205 -371h-145zM461 498h557l-150 725zM731 1821h168l96 -275h-139z" />
<glyph unicode="&#xc1;" horiz-adv-x="1306" d="M39 0l790 1411h144l295 -1411h-146l-80 371h-653l-205 -371h-145zM461 498h557l-150 725zM850 1546l190 275h168l-219 -275h-139z" />
<glyph unicode="&#xc2;" horiz-adv-x="1306" d="M39 0l790 1411h144l295 -1411h-146l-80 371h-653l-205 -371h-145zM461 498h557l-150 725zM641 1546l242 275h178l147 -275h-139l-115 176l-174 -176h-139z" />
<glyph unicode="&#xc3;" horiz-adv-x="1306" d="M39 0l790 1411h144l295 -1411h-146l-80 371h-653l-205 -371h-145zM461 498h557l-150 725zM668 1599q25 115 85.5 168.5t125.5 53.5q39 0 69.5 -21.5t55 -43t49.5 -21.5t49 20t33 66h104q-17 -79 -55 -129.5t-76.5 -68t-79.5 -17.5q-30 0 -55.5 13.5t-40 29.5t-34 29.5 t-40.5 13.5q-25 0 -50.5 -23.5t-35.5 -69.5h-104z" />
<glyph unicode="&#xc4;" horiz-adv-x="1306" d="M39 0l790 1411h144l295 -1411h-146l-80 371h-653l-205 -371h-145zM461 498h557l-150 725zM670 1722q7 42 42.5 70.5t78.5 28.5t69 -28.5t19 -70.5t-42.5 -70t-78.5 -28t-69 28t-19 70zM1032 1722q7 42 42.5 70.5t78.5 28.5t69 -28.5t19 -70.5t-42.5 -70t-78.5 -28t-69 28 t-19 70z" />
<glyph unicode="&#xc5;" horiz-adv-x="1306" d="M39 0l790 1411h144l295 -1411h-146l-80 371h-653l-205 -371h-145zM461 498h557l-150 725zM762 1743q17 87 82 144t149 57q85 0 133 -58t33 -143q-13 -84 -80.5 -140.5t-154.5 -56.5q-84 0 -130 56t-32 141zM870 1745q-8 -41 12.5 -66.5t61.5 -25.5q39 0 71.5 26t39.5 66 q6 38 -17 65t-61 27q-41 0 -71 -26.5t-36 -65.5z" />
<glyph unicode="&#xc6;" horiz-adv-x="1929" d="M20 0l1139 1411h883l-23 -135h-669l-93 -516h586l-24 -135h-586l-86 -490h692l-22 -135h-828l64 371h-574l-299 -371h-160zM582 498h493l139 778z" />
<glyph unicode="&#xc7;" horiz-adv-x="1361" d="M236 702q36 198 152 363.5t291 263.5t370 98q147 0 264.5 -55t197.5 -155l-110 -95q-144 170 -377 170q-159 0 -299.5 -79t-233.5 -213.5t-120 -297.5q-29 -162 16 -296t157 -212.5t271 -78.5q238 0 438 172l78 -97q-229 -201 -516 -210l29 -119q20 -82 -24 -157 t-130 -107q-86 -31 -151.5 -1t-85.5 109q-12 47 -4 88l106 -8q-7 -18 2 -39q11 -35 42.5 -50.5t68.5 -2.5q41 17 62.5 53.5t10.5 71.5l-41 168q-168 21 -286 121.5t-164.5 256t-13.5 338.5z" />
<glyph unicode="&#xc8;" horiz-adv-x="1144" d="M205 0l248 1411h804l-22 -135h-670l-92 -516h586l-25 -135h-585l-87 -490h693l-23 -135h-827zM711 1821h168l96 -275h-139z" />
<glyph unicode="&#xc9;" horiz-adv-x="1144" d="M205 0l248 1411h804l-22 -135h-670l-92 -516h586l-25 -135h-585l-87 -490h693l-23 -135h-827zM760 1546l190 275h168l-219 -275h-139z" />
<glyph unicode="&#xca;" horiz-adv-x="1144" d="M205 0l248 1411h804l-22 -135h-670l-92 -516h586l-25 -135h-585l-87 -490h693l-23 -135h-827zM567 1546l242 275h178l148 -275h-140l-114 176l-174 -176h-140z" />
<glyph unicode="&#xcb;" horiz-adv-x="1144" d="M205 0l248 1411h804l-22 -135h-670l-92 -516h586l-25 -135h-585l-87 -490h693l-23 -135h-827zM594 1722q7 42 42.5 70.5t78.5 28.5t69 -28.5t19 -70.5t-42.5 -70t-78.5 -28t-69 28t-19 70zM956 1722q7 42 42.5 70.5t78.5 28.5t69 -28.5t19 -70.5t-42.5 -70t-78.5 -28 t-69 28t-19 70z" />
<glyph unicode="&#xcc;" horiz-adv-x="544" d="M205 0l248 1411h135l-248 -1411h-135zM348 1821h168l96 -275h-139z" />
<glyph unicode="&#xcd;" horiz-adv-x="544" d="M205 0l248 1411h135l-248 -1411h-135zM475 1546l191 275h168l-220 -275h-139z" />
<glyph unicode="&#xce;" horiz-adv-x="544" d="M205 0l248 1411h135l-248 -1411h-135zM262 1546l242 275h178l147 -275h-139l-115 176l-174 -176h-139z" />
<glyph unicode="&#xcf;" horiz-adv-x="544" d="M205 0l248 1411h135l-248 -1411h-135zM291 1722q7 42 42.5 70.5t78.5 28.5t69 -28.5t19 -70.5t-42.5 -70t-78.5 -28t-69 28t-19 70zM653 1722q7 42 42.5 70.5t78.5 28.5t69 -28.5t19 -70.5t-42.5 -70t-78.5 -28t-69 28t-19 70z" />
<glyph unicode="&#xd0;" horiz-adv-x="1488" d="M127 643l23 125h200l113 643h530q117 0 211.5 -35t157 -99t101 -152.5t44 -195t-13.5 -227.5q-27 -151 -91.5 -279t-159 -222.5t-223 -147.5t-274.5 -53h-530l113 643h-201zM373 135h395q121 0 222.5 42.5t174.5 119t122 179t71 226.5q15 98 12.5 184.5t-30 158 t-74.5 123t-122 80t-171 28.5h-395l-93 -508h353l-23 -125h-352z" />
<glyph unicode="&#xd1;" horiz-adv-x="1402" d="M205 0l248 1411h145l504 -1173l209 1173h135l-248 -1411h-139l-512 1182l-207 -1182h-135zM717 1599q25 115 85.5 168.5t125.5 53.5q39 0 69.5 -21.5t55 -43t49.5 -21.5t49 20t33 66h104q-17 -79 -55 -129.5t-76.5 -68t-79.5 -17.5q-30 0 -55.5 13.5t-40 29.5t-34 29.5 t-40.5 13.5q-25 0 -50.5 -23.5t-35.5 -69.5h-104z" />
<glyph unicode="&#xd2;" horiz-adv-x="1640" d="M233 702q36 197 158 363.5t302 264t376 97.5q148 0 270 -57.5t199.5 -155t109.5 -231.5t5 -281q-36 -198 -158.5 -363.5t-303.5 -262t-378 -96.5t-343 96.5t-209.5 262t-27.5 363.5zM369 702q-29 -161 21.5 -295.5t169 -213t278.5 -78.5q161 0 307 78.5t245 213 t128 295.5q27 162 -23.5 297t-168.5 214t-279 79q-159 0 -305.5 -78.5t-246 -214t-126.5 -297.5zM911 1821h168l95 -275h-140z" />
<glyph unicode="&#xd3;" horiz-adv-x="1640" d="M233 702q36 197 158 363.5t302 264t376 97.5q148 0 270 -57.5t199.5 -155t109.5 -231.5t5 -281q-36 -198 -158.5 -363.5t-303.5 -262t-378 -96.5t-343 96.5t-209.5 262t-27.5 363.5zM369 702q-29 -161 21.5 -295.5t169 -213t278.5 -78.5q161 0 307 78.5t245 213 t128 295.5q27 162 -23.5 297t-168.5 214t-279 79q-159 0 -305.5 -78.5t-246 -214t-126.5 -297.5zM995 1546l193 275h168l-221 -275h-140z" />
<glyph unicode="&#xd4;" horiz-adv-x="1640" d="M233 702q36 197 158 363.5t302 264t376 97.5q148 0 270 -57.5t199.5 -155t109.5 -231.5t5 -281q-36 -198 -158.5 -363.5t-303.5 -262t-378 -96.5t-343 96.5t-209.5 262t-27.5 363.5zM369 702q-29 -161 21.5 -295.5t169 -213t278.5 -78.5q161 0 307 78.5t245 213 t128 295.5q27 162 -23.5 297t-168.5 214t-279 79q-159 0 -305.5 -78.5t-246 -214t-126.5 -297.5zM807 1546l244 275h178l145 -275h-139l-113 176l-176 -176h-139z" />
<glyph unicode="&#xd5;" horiz-adv-x="1640" d="M233 702q36 197 158 363.5t302 264t376 97.5q148 0 270 -57.5t199.5 -155t109.5 -231.5t5 -281q-36 -198 -158.5 -363.5t-303.5 -262t-378 -96.5t-343 96.5t-209.5 262t-27.5 363.5zM369 702q-29 -161 21.5 -295.5t169 -213t278.5 -78.5q161 0 307 78.5t245 213 t128 295.5q27 162 -23.5 297t-168.5 214t-279 79q-159 0 -305.5 -78.5t-246 -214t-126.5 -297.5zM836 1599q25 115 85.5 168.5t125.5 53.5q39 0 69.5 -21.5t55 -43t49.5 -21.5t49 20t33 66h104q-30 -116 -86.5 -165.5t-124.5 -49.5q-38 0 -68 21.5t-54.5 43t-49.5 21.5 q-24 0 -49 -23.5t-35 -69.5h-104z" />
<glyph unicode="&#xd6;" horiz-adv-x="1640" d="M233 702q36 197 158 363.5t302 264t376 97.5q148 0 270 -57.5t199.5 -155t109.5 -231.5t5 -281q-36 -198 -158.5 -363.5t-303.5 -262t-378 -96.5t-343 96.5t-209.5 262t-27.5 363.5zM369 702q-29 -161 21.5 -295.5t169 -213t278.5 -78.5q161 0 307 78.5t245 213 t128 295.5q27 162 -23.5 297t-168.5 214t-279 79q-159 0 -305.5 -78.5t-246 -214t-126.5 -297.5zM838 1722q7 42 42 70.5t78 28.5t69.5 -28.5t19.5 -70.5t-42.5 -70t-78.5 -28t-69 28t-19 70zM1200 1722q7 42 42.5 70.5t78.5 28.5t69 -28.5t19 -70.5t-42.5 -70t-78.5 -28 t-69 28t-19 70z" />
<glyph unicode="&#xd7;" horiz-adv-x="1001" d="M190 293l320 270l-225 271l110 90l221 -269l322 271l70 -92l-316 -271l221 -270l-106 -92l-227 270l-312 -268z" />
<glyph unicode="&#xd8;" horiz-adv-x="1636" d="M127 53l197 170q-141 207 -93 479q36 197 158.5 363.5t303 264t376.5 97.5q132 0 244 -46.5t192 -129.5l209 183l64 -76l-213 -184q136 -199 86 -472q-36 -198 -158 -363.5t-302.5 -262t-377.5 -96.5q-263 0 -430 167l-193 -170zM367 702q-40 -219 67 -383l961 834 q-139 139 -351 139q-119 0 -234.5 -46.5t-205.5 -125.5t-153.5 -188t-83.5 -230zM494 244q142 -129 342 -129q161 0 307 78.5t245 213t128 295.5q38 219 -64 375z" />
<glyph unicode="&#xd9;" horiz-adv-x="1380" d="M272 477l166 934h135l-165 -934q-14 -81 3 -149.5t59 -114.5t104.5 -72t136.5 -26q152 0 274.5 100t151.5 262l166 934h135l-164 -934q-26 -147 -114 -262t-212.5 -175t-261.5 -60q-210 0 -330 137.5t-84 359.5zM774 1821h168l94 -275h-139z" />
<glyph unicode="&#xda;" horiz-adv-x="1380" d="M272 477l166 934h135l-165 -934q-14 -81 3 -149.5t59 -114.5t104.5 -72t136.5 -26q152 0 274.5 100t151.5 262l166 934h135l-164 -934q-26 -147 -114 -262t-212.5 -175t-261.5 -60q-210 0 -330 137.5t-84 359.5zM874 1546l193 275h168l-221 -275h-140z" />
<glyph unicode="&#xdb;" horiz-adv-x="1380" d="M272 477l166 934h135l-165 -934q-14 -81 3 -149.5t59 -114.5t104.5 -72t136.5 -26q152 0 274.5 100t151.5 262l166 934h135l-164 -934q-26 -147 -114 -262t-212.5 -175t-261.5 -60q-210 0 -330 137.5t-84 359.5zM678 1546l244 275h178l145 -275h-139l-113 176l-176 -176 h-139z" />
<glyph unicode="&#xdc;" horiz-adv-x="1380" d="M272 477l166 934h135l-165 -934q-14 -81 3 -149.5t59 -114.5t104.5 -72t136.5 -26q152 0 274.5 100t151.5 262l166 934h135l-164 -934q-26 -147 -114 -262t-212.5 -175t-261.5 -60q-210 0 -330 137.5t-84 359.5zM709 1722q7 42 42 70.5t78 28.5t69.5 -28.5t19.5 -70.5 t-42.5 -70t-78.5 -28t-69 28t-19 70zM1071 1722q7 42 42.5 70.5t78.5 28.5t69 -28.5t19 -70.5t-42.5 -70t-78.5 -28t-69 28t-19 70z" />
<glyph unicode="&#xdd;" horiz-adv-x="1259" d="M276 1411h162l332 -608l549 608h164l-670 -756l-115 -655h-139l115 655zM825 1546l193 275h168l-221 -275h-140z" />
<glyph unicode="&#xde;" horiz-adv-x="1171" d="M205 0l248 1411h137l-45 -262h332q179 0 278 -117t66 -307q-21 -126 -96 -225.5t-180.5 -152t-221.5 -52.5h-332l-49 -295h-137zM416 430h332q121 0 217 82t120 213q24 128 -44.5 208.5t-188.5 80.5h-332z" />
<glyph unicode="&#xdf;" horiz-adv-x="1640" d="M223 557.5q-5 98.5 23 204.5h1280q10 128 -25.5 232.5t-103 169.5t-160.5 99t-194.5 30t-209.5 -47.5t-202 -123.5l-78 95q75 67 159 113.5t167 70t167 27.5t161 -11t147 -49t127 -83.5t98.5 -118t64 -148t21.5 -177.5t-27 -204q-46 -182 -165.5 -332t-290.5 -237.5 t-357 -87.5q-105 0 -198 28.5t-164.5 80.5t-126 124t-81.5 159t-32 185.5zM362 637q-8 -125 28 -225.5t105 -163t159 -96t192 -33.5t203 33.5t191 96t160 163t103 225.5h-1141z" />
<glyph unicode="&#xe0;" d="M182 481q27 148 113 262t207.5 174t257.5 60q110 0 202.5 -46t127.5 -132l26 157h137l-166 -956h-137l27 164q-66 -87 -175 -135.5t-218 -48.5q-208 0 -324.5 139t-77.5 362zM319 481q-29 -158 55.5 -261t235.5 -103q154 0 271.5 96t150.5 268q16 86 -3 156t-64 113.5 t-104.5 66.5t-125.5 23q-152 0 -269.5 -99t-146.5 -260zM647 1411h168l96 -274h-139z" />
<glyph unicode="&#xe1;" d="M182 481q27 148 113 262t207.5 174t257.5 60q110 0 202.5 -46t127.5 -132l26 157h137l-166 -956h-137l27 164q-66 -87 -175 -135.5t-218 -48.5q-208 0 -324.5 139t-77.5 362zM319 481q-29 -158 55.5 -261t235.5 -103q154 0 271.5 96t150.5 268q16 86 -3 156t-64 113.5 t-104.5 66.5t-125.5 23q-152 0 -269.5 -99t-146.5 -260zM719 1137l190 274h168l-219 -274h-139z" />
<glyph unicode="&#xe2;" d="M182 481q27 148 113 262t207.5 174t257.5 60q110 0 202.5 -46t127.5 -132l26 157h137l-166 -956h-137l27 164q-66 -87 -175 -135.5t-218 -48.5q-208 0 -324.5 139t-77.5 362zM319 481q-29 -158 55.5 -261t235.5 -103q154 0 271.5 96t150.5 268q16 86 -3 156t-64 113.5 t-104.5 66.5t-125.5 23q-152 0 -269.5 -99t-146.5 -260zM539 1137l241 274h178l148 -274h-139l-115 176l-174 -176h-139z" />
<glyph unicode="&#xe3;" d="M182 481q27 148 113 262t207.5 174t257.5 60q110 0 202.5 -46t127.5 -132l26 157h137l-166 -956h-137l27 164q-66 -87 -175 -135.5t-218 -48.5q-208 0 -324.5 139t-77.5 362zM319 481q-29 -158 55.5 -261t235.5 -103q154 0 271.5 96t150.5 268q16 86 -3 156t-64 113.5 t-104.5 66.5t-125.5 23q-152 0 -269.5 -99t-146.5 -260zM563 1190q13 60 38 105t55 69t60 35.5t60 11.5q39 0 69 -21.5t54 -43t49 -21.5q26 0 50.5 20t33.5 66h105q-17 -79 -54.5 -129.5t-76 -68t-80.5 -17.5q-39 0 -68 21.5t-52 43t-48 21.5t-52 -23t-38 -69h-105z" />
<glyph unicode="&#xe4;" d="M182 481q27 148 113 262t207.5 174t257.5 60q110 0 202.5 -46t127.5 -132l26 157h137l-166 -956h-137l27 164q-66 -87 -175 -135.5t-218 -48.5q-208 0 -324.5 139t-77.5 362zM319 481q-29 -158 55.5 -261t235.5 -103q154 0 271.5 96t150.5 268q16 86 -3 156t-64 113.5 t-104.5 66.5t-125.5 23q-152 0 -269.5 -99t-146.5 -260zM569 1313q7 42 41.5 70t77.5 28q44 0 70.5 -28t19.5 -70t-43.5 -70.5t-79.5 -28.5t-68 28.5t-18 70.5zM932 1313q7 42 41.5 70t77.5 28q44 0 70.5 -28t19.5 -70t-43.5 -70.5t-79.5 -28.5t-68 28.5t-18 70.5z" />
<glyph unicode="&#xe5;" d="M182 481q27 148 113 262t207.5 174t257.5 60q110 0 202.5 -46t127.5 -132l26 157h137l-166 -956h-137l27 164q-66 -87 -175 -135.5t-218 -48.5q-208 0 -324.5 139t-77.5 362zM319 481q-29 -158 55.5 -261t235.5 -103q154 0 271.5 96t150.5 268q16 86 -3 156t-64 113.5 t-104.5 66.5t-125.5 23q-152 0 -269.5 -99t-146.5 -260zM659 1333q17 87 82.5 144t149.5 57q85 0 133 -58t33 -143q-17 -85 -83.5 -140.5t-152.5 -55.5q-82 0 -130.5 57.5t-31.5 138.5zM766 1335q-6 -41 15.5 -66.5t62.5 -25.5q39 0 69.5 25.5t36.5 66.5q6 38 -16 65t-60 27 q-41 0 -71.5 -26.5t-36.5 -65.5z" />
<glyph unicode="&#xe6;" horiz-adv-x="1992" d="M182 481q27 148 113 262t207.5 174t257.5 60q110 0 202.5 -46t127.5 -132l26 157h137l-22 -118q165 139 375 139q135 0 230.5 -60t136.5 -173.5t14 -262.5q-3 -10 -6.5 -31.5t-6.5 -31.5h-811q-4 -140 75.5 -221.5t215.5 -81.5q97 0 182 43.5t146 122.5l129 -31 q-77 -128 -205 -199t-276 -71q-213 0 -326 141l-17 -121h-137l27 164q-66 -87 -175 -135.5t-218 -48.5q-208 0 -324.5 139t-77.5 362zM319 481q-29 -158 55.5 -261t235.5 -103q154 0 271.5 96t150.5 268q16 86 -3 156t-64 113.5t-104.5 66.5t-125.5 23q-152 0 -269.5 -99 t-146.5 -260zM1186 545h674q5 137 -70.5 217t-208.5 80q-134 0 -244 -81t-151 -216z" />
<glyph unicode="&#xe7;" horiz-adv-x="1034" d="M182 481q27 148 115 262t212 174t261 60q99 0 182.5 -33.5t139.5 -95.5l-113 -96q-87 90 -231 90q-98 0 -189 -43.5t-157 -127t-85 -190.5q-31 -161 58.5 -263.5t242.5 -102.5q144 0 265 92l82 -96q-148 -114 -322 -129l29 -121q20 -82 -24 -157t-130 -107t-152.5 -1.5 t-86.5 109.5q-9 33 -5 88l109 -8q1 -5 -0.5 -19.5t2.5 -19.5q11 -35 42.5 -50.5t68.5 -2.5q41 17 62.5 53.5t10.5 71.5l-41 166q-183 21 -282.5 157t-63.5 340z" />
<glyph unicode="&#xe8;" horiz-adv-x="1140" d="M182 481q41 223 202.5 359.5t369.5 136.5q135 0 230.5 -60t136.5 -173.5t14 -262.5q-3 -10 -6.5 -31.5t-6.5 -31.5h-811q-4 -140 75.5 -221.5t215.5 -81.5q97 0 182 43.5t146 122.5l129 -31q-77 -128 -205 -199t-276 -71q-208 0 -321.5 138.5t-74.5 362.5zM334 545h674 q5 137 -70.5 217t-208.5 80q-134 0 -244 -81t-151 -216zM592 1411h168l96 -274h-139z" />
<glyph unicode="&#xe9;" horiz-adv-x="1140" d="M182 481q41 223 202.5 359.5t369.5 136.5q135 0 230.5 -60t136.5 -173.5t14 -262.5q-3 -10 -6.5 -31.5t-6.5 -31.5h-811q-4 -140 75.5 -221.5t215.5 -81.5q97 0 182 43.5t146 122.5l129 -31q-77 -128 -205 -199t-276 -71q-208 0 -321.5 138.5t-74.5 362.5zM334 545h674 q5 137 -70.5 217t-208.5 80q-134 0 -244 -81t-151 -216zM692 1137l191 274h168l-220 -274h-139z" />
<glyph unicode="&#xea;" horiz-adv-x="1140" d="M182 481q41 223 202.5 359.5t369.5 136.5q135 0 230.5 -60t136.5 -173.5t14 -262.5q-3 -10 -6.5 -31.5t-6.5 -31.5h-811q-4 -140 75.5 -221.5t215.5 -81.5q97 0 182 43.5t146 122.5l129 -31q-77 -128 -205 -199t-276 -71q-208 0 -321.5 138.5t-74.5 362.5zM334 545h674 q5 137 -70.5 217t-208.5 80q-134 0 -244 -81t-151 -216zM492 1137l241 274h178l148 -274h-139l-115 176l-174 -176h-139z" />
<glyph unicode="&#xeb;" horiz-adv-x="1140" d="M182 481q41 223 202.5 359.5t369.5 136.5q135 0 230.5 -60t136.5 -173.5t14 -262.5q-3 -10 -6.5 -31.5t-6.5 -31.5h-811q-4 -140 75.5 -221.5t215.5 -81.5q97 0 182 43.5t146 122.5l129 -31q-77 -128 -205 -199t-276 -71q-208 0 -321.5 138.5t-74.5 362.5zM334 545h674 q5 137 -70.5 217t-208.5 80q-134 0 -244 -81t-151 -216zM522 1313q7 42 41.5 70t77.5 28q44 0 70.5 -28t19.5 -70t-43.5 -70.5t-79.5 -28.5t-68 28.5t-18 70.5zM885 1313q7 42 41.5 70t77.5 28q44 0 70.5 -28t19.5 -70t-43.5 -70.5t-79.5 -28.5t-68 28.5t-18 70.5z" />
<glyph unicode="&#xec;" horiz-adv-x="466" d="M166 0l168 956h135l-168 -956h-135zM236 1411h167l95 -274h-140z" />
<glyph unicode="&#xed;" horiz-adv-x="466" d="M166 0l168 956h135l-168 -956h-135zM362 1137l193 274h168l-221 -274h-140z" />
<glyph unicode="&#xee;" horiz-adv-x="466" d="M152 1137l243 274h178l146 -274h-139l-115 176l-174 -176h-139zM166 0l168 956h135l-168 -956h-135z" />
<glyph unicode="&#xef;" horiz-adv-x="466" d="M166 0l168 956h135l-168 -956h-135zM182 1313q7 42 42.5 70t78.5 28t69 -28t19 -70t-42.5 -70.5t-78.5 -28.5t-69 28.5t-19 70.5zM545 1313q7 42 42.5 70t78.5 28t69 -28t19 -70t-42.5 -70.5t-78.5 -28.5t-69 28.5t-19 70.5z" />
<glyph unicode="&#xf0;" horiz-adv-x="1202" d="M182 481q20 111 76.5 205t134 157t171.5 98.5t190 35.5q20 0 55.5 -7t54.5 -14l-157 252l-201 -114l-35 77l195 111l-131 193h167l84 -123l154 88l49 -72l-155 -88l309 -498q69 -121 39 -301q-39 -222 -208 -361.5t-380 -139.5q-101 0 -185.5 36t-141.5 100.5t-80.5 159 t-4.5 205.5zM317 481q-31 -161 58.5 -263.5t242.5 -102.5t275 101.5t154 264.5q19 108 -16 191t-110 126.5t-176 43.5q-152 0 -276 -100t-152 -261z" />
<glyph unicode="&#xf1;" horiz-adv-x="1142" d="M166 0l168 956h137l-29 -157q57 87 157 132.5t194 45.5q176 0 252.5 -111t39.5 -309l-96 -557h-137l96 557q23 134 -23.5 209.5t-156.5 75.5q-60 0 -117.5 -18t-110.5 -54t-92 -100t-53 -148l-92 -522h-137zM514 1190q25 115 85.5 168t127.5 53q39 0 69 -21.5t54 -43 t49 -21.5q26 0 50.5 20t33.5 66h104q-17 -79 -54.5 -129.5t-76 -68t-79.5 -17.5q-30 0 -55.5 13.5t-40 29.5t-34 29.5t-40.5 13.5q-25 0 -52.5 -23t-36.5 -69h-104z" />
<glyph unicode="&#xf2;" horiz-adv-x="1200" d="M182 481q27 148 115 262t212 174t261 60q101 0 186 -35.5t142 -98.5t80.5 -157t3.5 -205q-39 -222 -208 -361.5t-380 -139.5q-101 0 -185.5 36t-141.5 100.5t-80.5 159t-4.5 205.5zM317 481q-31 -161 58.5 -263.5t242.5 -102.5t275 101.5t154 264.5q19 108 -16 191 t-110 126.5t-176 43.5q-152 0 -276 -100t-152 -261zM610 1411h168l96 -274h-139z" />
<glyph unicode="&#xf3;" horiz-adv-x="1200" d="M182 481q27 148 115 262t212 174t261 60q101 0 186 -35.5t142 -98.5t80.5 -157t3.5 -205q-39 -222 -208 -361.5t-380 -139.5q-101 0 -185.5 36t-141.5 100.5t-80.5 159t-4.5 205.5zM317 481q-31 -161 58.5 -263.5t242.5 -102.5t275 101.5t154 264.5q19 108 -16 191 t-110 126.5t-176 43.5q-152 0 -276 -100t-152 -261zM715 1137l190 274h168l-219 -274h-139z" />
<glyph unicode="&#xf4;" horiz-adv-x="1200" d="M182 481q27 148 115 262t212 174t261 60q101 0 186 -35.5t142 -98.5t80.5 -157t3.5 -205q-39 -222 -208 -361.5t-380 -139.5q-101 0 -185.5 36t-141.5 100.5t-80.5 159t-4.5 205.5zM317 481q-31 -161 58.5 -263.5t242.5 -102.5t275 101.5t154 264.5q19 108 -16 191 t-110 126.5t-176 43.5q-152 0 -276 -100t-152 -261zM514 1137l242 274h178l147 -274h-139l-115 176l-174 -176h-139z" />
<glyph unicode="&#xf5;" horiz-adv-x="1200" d="M182 481q27 148 115 262t212 174t261 60q101 0 186 -35.5t142 -98.5t80.5 -157t3.5 -205q-39 -222 -208 -361.5t-380 -139.5q-101 0 -185.5 36t-141.5 100.5t-80.5 159t-4.5 205.5zM317 481q-31 -161 58.5 -263.5t242.5 -102.5t275 101.5t154 264.5q19 108 -16 191 t-110 126.5t-176 43.5q-152 0 -276 -100t-152 -261zM539 1190q13 60 38 105t55 69t60 35.5t60 11.5q39 0 69 -21.5t54 -43t49 -21.5q26 0 50.5 20t33.5 66h104q-17 -79 -54.5 -129.5t-76 -68t-80.5 -17.5q-39 0 -68 21.5t-52 43t-48 21.5t-52 -23t-38 -69h-104z" />
<glyph unicode="&#xf6;" horiz-adv-x="1200" d="M182 481q27 148 115 262t212 174t261 60q101 0 186 -35.5t142 -98.5t80.5 -157t3.5 -205q-39 -222 -208 -361.5t-380 -139.5q-101 0 -185.5 36t-141.5 100.5t-80.5 159t-4.5 205.5zM317 481q-31 -161 58.5 -263.5t242.5 -102.5t275 101.5t154 264.5q19 108 -16 191 t-110 126.5t-176 43.5q-152 0 -276 -100t-152 -261zM545 1313q7 42 41.5 70t77.5 28q44 0 70.5 -28t19.5 -70t-43.5 -70.5t-79.5 -28.5t-68 28.5t-18 70.5zM907 1313q7 42 41.5 70t77.5 28q44 0 70.5 -28t19.5 -70t-43.5 -70.5t-79.5 -28.5t-68 28.5t-18 70.5z" />
<glyph unicode="&#xf7;" horiz-adv-x="1187" d="M240 477l22 129h873l-23 -129h-872zM518 213q7 46 45 76t86 30t74.5 -29.5t19.5 -76.5q-10 -47 -47 -77t-84 -30q-48 0 -76 30.5t-18 76.5zM635 870q7 47 45 77t86 30t74.5 -30t19.5 -77q-7 -46 -45 -76t-86 -30t-74.5 29.5t-19.5 76.5z" />
<glyph unicode="&#xf8;" horiz-adv-x="1196" d="M109 53l122 109q-82 135 -49 319q27 147 116 261.5t212.5 174.5t259.5 60q172 0 291 -98l121 106l63 -76l-119 -102q89 -136 56 -326q-39 -222 -208 -361.5t-380 -139.5q-190 0 -299 106l-123 -109zM317 481q-23 -126 27 -221l602 520q-77 62 -201 62q-152 0 -276 -100 t-152 -261zM410 184q78 -69 206 -69q153 0 276 101.5t155 264.5q24 136 -37 228z" />
<glyph unicode="&#xf9;" horiz-adv-x="1142" d="M223 399l99 557h137l-99 -557q-23 -134 24 -209t157 -75q60 0 117 17.5t110 54t92.5 100t54.5 147.5l93 522h137l-168 -956h-137l26 158q-57 -87 -157.5 -132.5t-192.5 -45.5q-176 0 -253 111t-40 308zM588 1411h168l94 -274h-139z" />
<glyph unicode="&#xfa;" horiz-adv-x="1142" d="M223 399l99 557h137l-99 -557q-23 -134 24 -209t157 -75q60 0 117 17.5t110 54t92.5 100t54.5 147.5l93 522h137l-168 -956h-137l26 158q-57 -87 -157.5 -132.5t-192.5 -45.5q-176 0 -253 111t-40 308zM676 1137l192 274h168l-221 -274h-139z" />
<glyph unicode="&#xfb;" horiz-adv-x="1142" d="M223 399l99 557h137l-99 -557q-23 -134 24 -209t157 -75q60 0 117 17.5t110 54t92.5 100t54.5 147.5l93 522h137l-168 -956h-137l26 158q-57 -87 -157.5 -132.5t-192.5 -45.5q-176 0 -253 111t-40 308zM500 1137l243 274h179l145 -274h-139l-113 176l-176 -176h-139z" />
<glyph unicode="&#xfc;" horiz-adv-x="1142" d="M223 399l99 557h137l-99 -557q-23 -134 24 -209t157 -75q60 0 117 17.5t110 54t92.5 100t54.5 147.5l93 522h137l-168 -956h-137l26 158q-57 -87 -157.5 -132.5t-192.5 -45.5q-176 0 -253 111t-40 308zM530 1313q7 42 42.5 70t78.5 28t69 -28t19 -70t-42.5 -70.5 t-78.5 -28.5t-69 28.5t-19 70.5zM893 1313q7 42 42.5 70t78.5 28t69 -28t19 -70t-42.5 -70.5t-78.5 -28.5t-69 28.5t-19 70.5z" />
<glyph unicode="&#xfd;" horiz-adv-x="1034" d="M166 -463l274 465l-223 954h143l187 -778l463 778h145l-848 -1419h-141zM614 1137l193 274h168l-221 -274h-140z" />
<glyph unicode="&#xfe;" d="M80 -463l346 1938h137l-119 -674q65 88 172.5 133t219.5 45q208 0 324.5 -137t76.5 -359q-39 -223 -204.5 -362t-373.5 -139q-109 0 -200.5 48.5t-126.5 135.5l-115 -629h-137zM387 483q-32 -171 54.5 -267.5t240.5 -96.5q150 0 269.5 102.5t148.5 261.5q29 161 -54 260 t-235 99q-65 0 -132.5 -23t-128 -66.5t-105 -113.5t-58.5 -156z" />
<glyph unicode="&#xff;" horiz-adv-x="1140" d="M180 473q3 10 6.5 32t6.5 32h811q4 140 -75.5 221.5t-215.5 81.5q-97 0 -182 -43.5t-146 -122.5l-129 31q77 128 205 199t276 71q207 0 321.5 -139.5t74.5 -362.5q-39 -223 -201.5 -359.5t-370.5 -136.5q-206 0 -313 135.5t-68 360.5zM307 410q-5 -137 70.5 -217 t208.5 -80q135 0 242 80.5t153 216.5h-674z" />
<glyph unicode="&#x152;" horiz-adv-x="2334" d="M233 702q36 197 158 363.5t302 264t376 97.5q177 0 313 -78t211 -216l49 278h805l-22 -135h-670l-94 -516h586l-25 -135h-586l-86 -490h693l-21 -135h-827l45 274q-124 -138 -287 -216t-340 -78q-197 0 -343 96.5t-209.5 262t-27.5 363.5zM369 702q-29 -161 22 -295.5 t169.5 -213t277.5 -78.5q236 0 429 162.5t246 400.5l7 49q21 155 -32 284.5t-169.5 205t-271.5 75.5q-159 0 -305.5 -78.5t-246 -214t-126.5 -297.5z" />
<glyph unicode="&#x153;" horiz-adv-x="2004" d="M182 481q27 148 115 262t212 174t261 60q136 0 239 -61t150 -171q82 110 202.5 171t256.5 61q135 0 230.5 -60t136.5 -173.5t14 -262.5q-3 -11 -6 -32.5t-6 -30.5h-811q-4 -140 75 -221.5t215 -81.5q97 0 182 43.5t146 122.5l129 -31q-77 -128 -205 -199t-276 -71 q-136 0 -235 62t-140 173q-86 -110 -212 -172.5t-261 -62.5q-101 0 -185.5 36t-141.5 100.5t-80.5 159t-4.5 205.5zM317 481q-31 -161 58.5 -263.5t242.5 -102.5q97 0 190 41.5t159.5 123.5t74.5 185l2 16q24 164 -61 262.5t-238 98.5q-152 0 -276 -100t-152 -261zM1198 545 h674q5 137 -70.5 217t-208.5 80q-134 0 -244 -81t-151 -216z" />
<glyph unicode="&#x178;" horiz-adv-x="1259" d="M276 1411h162l332 -608l549 608h164l-670 -756l-115 -655h-139l115 655zM649 1722q7 42 43.5 70.5t79.5 28.5t68 -28.5t18 -70.5t-42.5 -70t-78.5 -28t-69 28t-19 70zM1012 1722q7 42 43.5 70.5t79.5 28.5t68 -28.5t18 -70.5t-42.5 -70t-78.5 -28t-69 28t-19 70z" />
<glyph unicode="&#x2c6;" horiz-adv-x="997" d="M414 1137l243 274h179l145 -274h-139l-115 176l-174 -176h-139z" />
<glyph unicode="&#x2dc;" horiz-adv-x="862" d="M373 1190q13 60 38 105t55 69t60 35.5t60 11.5q39 0 69 -21.5t54 -43t49 -21.5q26 0 50.5 20t33.5 66h104q-17 -79 -54.5 -129.5t-76 -68t-80.5 -17.5q-30 0 -55.5 13.5t-40 29.5t-34 29.5t-40.5 13.5q-25 0 -52 -23t-36 -69h-104z" />
<glyph unicode="&#x2000;" horiz-adv-x="972" />
<glyph unicode="&#x2001;" horiz-adv-x="1944" />
<glyph unicode="&#x2002;" horiz-adv-x="972" />
<glyph unicode="&#x2003;" horiz-adv-x="1944" />
<glyph unicode="&#x2004;" horiz-adv-x="648" />
<glyph unicode="&#x2005;" horiz-adv-x="486" />
<glyph unicode="&#x2006;" horiz-adv-x="324" />
<glyph unicode="&#x2007;" horiz-adv-x="324" />
<glyph unicode="&#x2008;" horiz-adv-x="243" />
<glyph unicode="&#x2009;" horiz-adv-x="388" />
<glyph unicode="&#x200a;" horiz-adv-x="108" />
<glyph unicode="&#x2010;" horiz-adv-x="993" d="M217 414l25 129h698l-25 -129h-698z" />
<glyph unicode="&#x2011;" horiz-adv-x="993" d="M217 414l25 129h698l-25 -129h-698z" />
<glyph unicode="&#x2012;" horiz-adv-x="993" d="M217 414l25 129h698l-25 -129h-698z" />
<glyph unicode="&#x2013;" horiz-adv-x="1222" d="M219 414l23 121h923l-22 -121h-924z" />
<glyph unicode="&#x2014;" horiz-adv-x="1665" d="M219 414l23 121h1366l-23 -121h-1366z" />
<glyph unicode="&#x2018;" horiz-adv-x="485" d="M309 991q39 151 111.5 269.5t142.5 166.5l76 -26q-151 -165 -195 -410h-135z" />
<glyph unicode="&#x2019;" horiz-adv-x="481" d="M295 1018q150 171 192 409h136q-40 -153 -111.5 -269t-144.5 -167z" />
<glyph unicode="&#x201a;" horiz-adv-x="477" d="M47 -111q148 161 195 410h135q-40 -152 -112 -268t-144 -168z" />
<glyph unicode="&#x201c;" horiz-adv-x="722" d="M309 991q39 151 111.5 269.5t142.5 166.5l76 -26q-151 -165 -195 -410h-135zM547 991q39 151 111.5 269.5t142.5 166.5l76 -26q-151 -165 -195 -410h-135z" />
<glyph unicode="&#x201d;" horiz-adv-x="718" d="M295 1018q150 171 192 409h136q-40 -153 -111.5 -269t-144.5 -167zM532 1018q151 172 193 409h135q-40 -153 -111.5 -269t-144.5 -167z" />
<glyph unicode="&#x201e;" horiz-adv-x="714" d="M47 -111q148 161 195 410h135q-40 -152 -112 -268t-144 -168zM285 -111q147 160 194 410h135q-40 -152 -112 -268t-144 -168z" />
<glyph unicode="&#x2022;" horiz-adv-x="937" d="M258 489q20 120 120.5 200.5t223.5 80.5t194.5 -80.5t51.5 -200.5t-120.5 -200t-223.5 -80t-194.5 80t-51.5 200z" />
<glyph unicode="&#x2026;" horiz-adv-x="1503" d="M160 86q7 46 46 76.5t87 30.5q47 0 73 -30t19 -77q-7 -46 -45 -76t-86 -30t-74.5 29.5t-19.5 76.5zM651 86q7 46 46 76.5t87 30.5t74 -30t19 -77q-7 -46 -45.5 -76t-86.5 -30t-74.5 29.5t-19.5 76.5zM1143 86q7 46 46 76.5t87 30.5q47 0 73 -30t19 -77q-7 -46 -45 -76 t-86 -30t-74.5 29.5t-19.5 76.5z" />
<glyph unicode="&#x202f;" horiz-adv-x="388" />
<glyph unicode="&#x2039;" horiz-adv-x="620" d="M184 475l359 424h127l-359 -424l209 -424h-127z" />
<glyph unicode="&#x203a;" horiz-adv-x="620" d="M117 51l356 424l-205 424h127l205 -424l-356 -424h-127z" />
<glyph unicode="&#x205f;" horiz-adv-x="486" />
<glyph unicode="&#x20ac;" horiz-adv-x="1632" d="M203 535l16 96h957l-17 -96h-600q12 -186 135.5 -303t319.5 -117q238 0 438 172l78 -97q-114 -100 -254 -155t-287 -55q-251 0 -406 156t-163 399h-217zM244 766l16 96h215q93 246 305 405.5t465 159.5q147 0 266.5 -55t198.5 -155l-111 -95q-144 170 -376 170 q-197 0 -363 -120.5t-246 -309.5h603l-17 -96h-956z" />
<glyph unicode="&#x2122;" horiz-adv-x="1677" d="M369 1307l18 104h672l162 -571l362 571h98l-43 -760h-102l31 572l-322 -506h-92l-145 502l-168 -568h-105l195 656h-223l-115 -656h-105l115 656h-233z" />
<glyph unicode="&#x25fc;" horiz-adv-x="952" d="M0 0v952h952v-952h-952z" />
</font>
</defs>
</svg>
